name C:\Users\u0101727\Documents\MyRepositories\paper-ad\predictivesimulations_2d/Results/PredSim_2D/IK_c14.mot
datacolumns 11
datarows 38
range 0.63318514 0.98815257
endheader
time	pelvis_tilt	pelvis_tx	pelvis_ty	hip_flexion_l	hip_flexion_r	knee_angle_l	knee_angle_r	ankle_angle_l	ankle_angle_r	lumbar_extension	
          0.63318514	        -15.06329602	          0.85496300	          0.89988249	         25.70435345	         11.38337978	        -10.65100845	        -40.88885240	          8.49532521	         -0.30604863	         10.31827595	
          0.64277885	        -15.08039614	          0.86693530	          0.90132012	         24.78550540	         12.65636000	        -10.40385902	        -41.78534913	          8.59817004	          0.66994265	         10.27990765	
          0.65237257	        -15.09501691	          0.87885175	          0.90251410	         23.85138307	         13.96178212	        -10.13186736	        -42.57393463	          8.74186114	          1.72589273	         10.23755215	
          0.66196628	        -15.10714281	          0.89071998	          0.90346769	         22.90642033	         15.29464236	         -9.84284491	        -43.24645188	          8.92053083	          2.84413284	         10.19152790	
          0.67156000	        -15.11689671	          0.90254728	          0.90419148	         21.95452426	         16.64896698	         -9.54385622	        -43.79539229	          9.12768695	          4.00685451	         10.14230959	
          0.68115371	        -15.12444209	          0.91433993	          0.90470241	         20.99985567	         18.01890445	         -9.24247064	        -44.21309203	          9.35565278	          5.19621498	         10.09033053	
          0.69074743	        -15.12992041	          0.92610343	          0.90502125	         20.04698171	         19.39900374	         -8.94650234	        -44.49168345	          9.59638412	          6.39440142	         10.03592926	
          0.70034114	        -15.13347690	          0.93784381	          0.90516940	         19.10070389	         20.78273755	         -8.66434953	        -44.62426052	          9.84192490	          7.58361765	          9.97948877	
          0.70993485	        -15.13533017	          0.94956811	          0.90516711	         18.16428033	         22.16320964	         -8.40165482	        -44.60517712	         10.08493575	          8.74619241	          9.92153778	
          0.71952857	        -15.13579674	          0.96128471	          0.90503248	         17.23851610	         23.53350086	         -8.15973069	        -44.43040555	         10.31876761	          9.86475479	          9.86282256	
          0.72912228	        -15.13515939	          0.97300232	          0.90478105	         16.32481485	         24.88578198	         -7.94133411	        -44.09785719	         10.53662563	         10.92256960	          9.80407241	
          0.73871600	        -15.13366220	          0.98472917	          0.90442591	         15.42534226	         26.21206651	         -7.75008544	        -43.60661845	         10.73241207	         11.90419102	          9.74590819	
          0.74830971	        -15.13154665	          0.99647439	          0.90397775	         14.54166232	         27.50348666	         -7.58904454	        -42.95980986	         10.90147355	         12.79621497	          9.68907245	
          0.75790343	        -15.12907032	          1.00824639	          0.90344570	         13.67470894	         28.75208405	         -7.46022082	        -42.16191033	         11.04084302	         13.58841206	          9.63425132	
          0.76749714	        -15.12649670	          1.02005181	          0.90283786	         12.82534491	         29.95163972	         -7.36471082	        -41.21730244	         11.14936645	         14.27469667	          9.58193448	
          0.77709085	        -15.12406460	          1.03189694	          0.90216078	         11.99427526	         31.09647433	         -7.30416446	        -40.13266200	         11.22775667	         14.85347209	          9.53256102	
          0.78668457	        -15.12199528	          1.04378615	          0.90141984	         11.18182136	         32.18363021	         -7.27949248	        -38.91348663	         11.27882470	         15.32756659	          9.48632161	
          0.79627828	        -15.12050037	          1.05572304	          0.90061882	         10.38787126	         33.21174051	         -7.29109634	        -37.56477760	         11.30702903	         15.70325872	          9.44328296	
          0.80587200	        -15.11979857	          1.06771097	          0.89975971	          9.61217458	         34.18021300	         -7.33898719	        -36.09193015	         11.31768981	         15.98891623	          9.40342388	
          0.81546571	        -15.12017246	          1.07975447	          0.89884266	          8.85412023	         35.08755427	         -7.42259894	        -34.50244609	         11.31607056	         16.19368041	          9.36681892	
          0.82505942	        -15.12201367	          1.09186000	          0.89786655	          8.11267116	         35.93027672	         -7.54088678	        -32.80401403	         11.30577124	         16.32666904	          9.33377687	
          0.83465314	        -15.12564538	          1.10403567	          0.89683022	          7.38746824	         36.70380865	         -7.69412251	        -31.00813637	         11.28762684	         16.39666169	          9.30468340	
          0.84424685	        -15.13113754	          1.11629347	          0.89573631	          6.67939783	         37.40146549	         -7.88595201	        -29.14104133	         11.26003768	         16.41179988	          9.28012670	
          0.85384057	        -15.13851813	          1.12865164	          0.89459723	          5.99050062	         38.01027927	         -8.12263197	        -27.23691313	         11.21696428	         16.37936811	          9.26141086	
          0.86343428	        -15.14780805	          1.14113168	          0.89343467	          5.32393429	         38.51445630	         -8.41128787	        -25.32794539	         11.14599859	         16.30575922	          9.25025800	
          0.87302800	        -15.15868706	          1.15375239	          0.89227117	          4.68412074	         38.90455377	         -8.76042210	        -23.44199861	         11.03085680	         16.19636069	          9.24785581	
          0.88262171	        -15.17035936	          1.16652835	          0.89112472	          4.07631458	         39.18044338	         -9.17987970	        -21.60094810	         10.85501058	         16.05529793	          9.25461051	
          0.89221542	        -15.18161395	          1.17947240	          0.89000960	          3.50578933	         39.34904260	         -9.67994688	        -19.82639492	         10.60419042	         15.88517019	          9.27044805	
          0.90180914	        -15.19123070	          1.19259841	          0.88893799	          2.97743773	         39.41756488	        -10.27031772	        -18.13313626	         10.26554612	         15.68717006	          9.29545891	
          0.91140285	        -15.19806696	          1.20592083	          0.88791907	          2.49569453	         39.39282715	        -10.95956041	        -16.53294345	          9.82692130	         15.46119165	          9.32988247	
          0.92099657	        -15.20086882	          1.21945386	          0.88695811	          2.06517407	         39.28242463	        -11.75666878	        -15.04286199	          9.27746367	         15.20595014	          9.37385807	
          0.93059028	        -15.19837331	          1.23321190	          0.88605617	          1.69139464	         39.09139641	        -12.67193003	        -13.67743691	          8.60619729	         14.91942952	          9.42767808	
          0.94018400	        -15.18917633	          1.24720855	          0.88520895	          1.38026566	         38.82452300	        -13.71627216	        -12.45655766	          7.80268307	         14.59874950	          9.49159475	
          0.94977771	        -15.17172127	          1.26145555	          0.88440533	          1.13744758	         38.48716519	        -14.89990458	        -11.40902009	          6.85941128	         14.24010890	          9.56575835	
          0.95937142	        -15.14456648	          1.27596399	          0.88362618	          0.96772995	         38.07965448	        -16.23211893	        -10.56569636	          5.77639771	         13.83914255	          9.65075832	
          0.96896514	        -15.10652051	          1.29074215	          0.88284000	          0.87403221	         37.59494867	        -17.72588488	         -9.96024880	          4.57599430	         13.39086131	          9.74765592	
          0.97855885	        -15.05742782	          1.30578375	          0.88200292	          0.85907940	         37.01506370	        -19.38714621	         -9.64083232	          3.27174486	         12.89046237	          9.85759427	
          0.98815257	        -14.99984686	          1.32107174	          0.88113834	          0.93010830	         36.27193189	        -21.21277801	         -9.72801099	          1.84363933	         12.33587480	          9.98454802	
